<svg width="36" height="36" viewBox="0 0 36 36" fill="none" xmlns="http://www.w3.org/2000/svg">
<path d="M1.28572 7.71427C1.28572 4.87395 3.58826 2.57141 6.42858 2.57141H29.5714C32.4118 2.57141 34.7143 4.87395 34.7143 7.71427V30.8571C34.7143 33.6974 32.4118 36 29.5714 36H6.42858C3.58826 36 1.28572 33.6974 1.28572 30.8571V7.71427Z" fill="#984EFF"/>
<path d="M3.65938 25.9803H32.1429V29.5714C32.1429 31.7017 30.416 33.4286 28.2858 33.4286H7.51652C5.38628 33.4286 3.65938 31.7017 3.65938 29.5714V25.9803Z" fill="#CCDFF4"/>
<path d="M3.65938 11.0837H32.1429V27.4433C32.1429 29.5736 30.416 31.3005 28.2858 31.3005H7.51652C5.38628 31.3005 3.65938 29.5736 3.65938 27.4433V11.0837Z" fill="#FBFBFC"/>
<path d="M32.1432 28.3001C32.1432 29.9569 30.7999 31.2999 29.1432 31.3001H23.5455L32.1432 23.2308V28.3001Z" fill="#E5E5F2"/>
<path d="M3.65938 8.55667C3.65938 6.42642 5.38628 4.69952 7.51652 4.69952H28.2858C30.416 4.69952 32.1429 6.42643 32.1429 8.55667V13.4335H3.65938V8.55667Z" fill="#AB6FFF"/>
<ellipse cx="10.5165" cy="8.42365" rx="2.63736" ry="2.6601" fill="#AB6FFF"/>
<rect x="8.93411" y="2.57141" width="3.16484" height="7.44828" rx="1.58242" fill="#BDDEFF"/>
<rect x="8.93411" y="2.57141" width="3.16484" height="5.3202" rx="1.58242" fill="#DEF1FD"/>
<ellipse cx="25.2857" cy="8.42365" rx="2.63736" ry="2.6601" fill="#AB6FFF"/>
<rect x="23.7032" y="2.57141" width="3.16484" height="7.44828" rx="1.58242" fill="#BDDEFF"/>
<rect x="23.7032" y="2.57141" width="3.16484" height="5.3202" rx="1.58242" fill="#DEF1FD"/>
<rect x="7" y="16" width="4" height="4" rx="1" fill="#EDE1FF"/>
<rect x="13" y="16" width="4" height="4" rx="1" fill="#EDE1FF"/>
<rect x="19" y="16" width="4" height="4" rx="1" fill="#EDE1FF"/>
<rect x="25" y="16" width="4" height="4" rx="1" fill="#EDE1FF"/>
<rect x="7" y="22" width="4" height="4" rx="1" fill="#EDE1FF"/>
<rect x="13" y="22" width="4" height="4" rx="1" fill="#EDE1FF"/>
<rect x="19" y="22" width="4" height="4" rx="1" fill="#EDE1FF"/>
</svg>
